<svg xmlns="http://www.w3.org/2000/svg" xmlns:xlink="http://www.w3.org/1999/xlink" version="1.1" id="&#1057;&#1083;&#1086;&#1081;_1" x="0px" y="0px" width="100px" height="100px" viewBox="0 0 100 100" enable-background="new 0 0 100 100" xml:space="preserve">
<path d="M70,17.5H30c-6.893,0-12.5,5.607-12.5,12.5v40c0,6.893,5.607,12.5,12.5,12.5h40c6.893,0,12.5-5.607,12.5-12.5V30  C82.5,23.107,76.893,17.5,70,17.5z M77.5,70c0,4.136-3.364,7.5-7.5,7.5H30c-4.136,0-7.5-3.364-7.5-7.5V30c0-4.136,3.364-7.5,7.5-7.5  h40c4.136,0,7.5,3.364,7.5,7.5V70z"/>
<path d="M67.5,47.5h-35c-1.381,0-2.5,1.119-2.5,2.5s1.119,2.5,2.5,2.5h35c1.381,0,2.5-1.119,2.5-2.5S68.881,47.5,67.5,47.5z"/>
</svg>