<svg xmlns="http://www.w3.org/2000/svg" xmlns:xlink="http://www.w3.org/1999/xlink" version="1.1" id="&#1057;&#1083;&#1086;&#1081;_1" x="0px" y="0px" viewBox="0 0 100 100" enable-background="new 0 0 100 100" xml:space="preserve" height="100px" width="100px">
<path d="M85,19L71,5H15v90h70V19z M70,11l9,9h-9V11z M20,90V10h45v15h15v65H20z"/>
<polygon points="25,70 25,75 75,75 75,72.5 75,70 "/>
<polygon points="25,60 25,65 75,65 75,62.5 75,60 "/>
<polygon points="25,50 25,55 75,55 75,52.5 75,50 "/>
<polygon points="25,40 25,45 75,45 75,42.5 75,40 "/>
<polygon points="25,30 25,35 75,35 75,32.5 75,30 "/>
</svg>