<svg xmlns="http://www.w3.org/2000/svg" xmlns:xlink="http://www.w3.org/1999/xlink" version="1.1" id="&#1057;&#1083;&#1086;&#1081;_1" x="0px" y="0px" viewBox="0 0 100 100" enable-background="new 0 0 100 100" xml:space="preserve" height="100px" width="100px">
<path d="M87.5,20H37.1c-0.7,0-1.3-0.3-1.8-0.7l-2.1-2.1c-1.4-1.4-3.3-2.2-5.3-2.2H12.5C8.4,15,5,18.4,5,22.5V80c0,2,0.8,3.9,2.2,5.3  c1.5,1.5,3.3,2.2,5.3,2.2c0.1,0,0.2,0,0.4,0h74.7c4.1,0,7.5-3.4,7.5-7.5V27.5C95,23.4,91.6,20,87.5,20z M15,35v45  c0,1.5-1.2,2.2-1.5,2.3c-0.4,0.1-1.6,0.6-2.7-0.5C10.3,81.3,10,80.7,10,80V22.5c0-1.4,1.1-2.5,2.5-2.5h15.4c0.7,0,1.3,0.3,1.8,0.7  l2.1,2.1c1.4,1.4,3.3,2.2,5.3,2.2h4.8l-1.8,1.8c-0.5,0.5-1.1,0.7-1.8,0.7H22.5C18.4,27.5,15,30.9,15,35z M90,80  c0,1.4-1.1,2.5-2.5,2.5H19.6c0.3-0.8,0.4-1.6,0.4-2.5V35c0-1.4,1.1-2.5,2.5-2.5h15.9c2,0,3.9-0.8,5.3-2.2l4.6-4.6  c0.5-0.5,1.1-0.7,1.8-0.7h37.5c1.4,0,2.5,1.1,2.5,2.5V80z"/>
</svg>