<svg xmlns="http://www.w3.org/2000/svg" xmlns:xlink="http://www.w3.org/1999/xlink" version="1.1" id="&#1057;&#1083;&#1086;&#1081;_1" x="0px" y="0px" viewBox="0 0 100 100" enable-background="new 0 0 100 100" xml:space="preserve" height="100px" width="100px">
<path d="M92.5,22.5H51l-9.3-9.3c-0.5-0.5-1.1-0.7-1.8-0.7H7.5C6.1,12.5,5,13.6,5,15v20v50c0,1.4,1.1,2.5,2.5,2.5h85  c1.4,0,2.5-1.1,2.5-2.5V25C95,23.6,93.9,22.5,92.5,22.5z M10,17.5h29l7.5,7.5L39,32.5H10V17.5z M90,82.5H10v-45h30  c0.7,0,1.3-0.3,1.8-0.7l9.3-9.3h39V82.5z"/>
</svg>